<svg version="1.1" id="Layer_1" xmlns="http://www.w3.org/2000/svg" xmlns:xlink="http://www.w3.org/1999/xlink" x="0px" y="0px" viewBox="0 0 787.6 140.1" style="enable-background:new 0 0 787.6 140.1;" xml:space="preserve">
 <style type="text/css">
  .st0{fill-rule:evenodd;clip-rule:evenodd;fill:#FFFFFF;}
 </style>
 <g id="Page-1">
  <g id="BFG_Inline_Logo">
   <path id="Fill-1" class="st0" d="M458.1,2.1h-98.8c-2.8,0-5,2.3-5,5v125.7c0,2.8,2.3,5,5,5h43c2.8,0,5-2.3,5-5V94.5h38.9
			c2.8,0,5-2.3,5-5V61.2c0-2.8-2.3-5-5-5h-38.9V45.1h50.8c2.8,0,5-2.3,5-5V7.2C463.2,4.4,460.9,2.1,458.1,2.1z M522.3,132.9V7.2
			c0-2.8-2.3-5-5-5l-43,0c-2.8,0-5,2.3-5,5v125.7c0,2.8,2.3,5,5,5h43C520,138,522.3,135.7,522.3,132.9z M309.6,70.1H267
			c-2.8,0-5,2.3-5,5v21c-13.8,0-26.4-10.8-24.9-28.7c1.1-13.4,11.9-22.7,25.2-22.7c8,0,14.7,2.9,20.7,7.8c2.1,1.7,5.1,1.2,6.7-0.9
			l19-26.4c1.5-2.1,1.2-5.1-0.8-6.8C297,9.2,278.8,0,257.3,0c-35.7,0-63.7,20.4-72.3,49.5l-8.4-25.2c-4.4-13.2-16.8-22.1-30.7-22.1
			h-24.7c4.5,11.1,4.5,17,7.1,36c2.4,17.1,11,31.9,11,31.9s-8.6,14.8-11,31.8c-2.6,19.1-2.6,24.9-7.1,36.1h24.7
			c13.9,0,26.3-8.9,30.7-22.1l8.6-25.7c9.1,32.2,38.5,50,73,50c21.5,0,38.8-6.5,51.5-15.3c3.1-2.1,4.8-5.7,4.8-9.4V75.2
			C314.6,72.4,312.4,70.1,309.6,70.1z M649.9,93.4c0-13.7-5-24.7-18.4-32.6c-13.8-8.1-33-11.1-39.2-12.8c-4.4-1.2-7.6-3.2-7-5.9
			c0.5-2.4,3.1-3.8,8-3.8c9.9,0,19.7,4.8,25,7.9c2.1,1.2,4.8,0.6,6.2-1.3l15.8-22.2c1.7-2.4,1-5.7-1.5-7.2C625.5,7.1,609,0,587.7,0
			C556.6,0,529,15.9,529,45.3c0,9.4,4.5,20,14.9,28.2c12.8,10,27.4,12.4,38.1,15.2c6.8,1.8,8.1,4.3,7.9,6.4c-0.2,2-2.6,4.2-7.4,4.2
			c-9.6,0-22.6-5.9-32-11.9c-2.1-1.4-4.9-0.8-6.4,1.2l-17.1,24.1c-1.6,2.2-1.1,5.3,1,6.9c18.6,14.2,37.8,20.5,62.1,20.5
			C624.2,140.1,649.9,120.7,649.9,93.4z M782.6,2.1h-45.2c-2.8,0-5,2.3-5,5V46h-22.8V7.2c0-2.8-2.3-5-5-5h-45.2c-2.8,0-5,2.3-5,5
			v125.7c0,2.8,2.3,5,5,5h45.2c2.8,0,5-2.3,5-5V94.1h22.8v38.8c0,2.8,2.3,5,5,5h45.2c2.8,0,5-2.3,5-5V7.2
			C787.6,4.4,785.4,2.1,782.6,2.1z M60.9,101.1h-9.5V81.4h9.5c7.6,0,11.4,4.1,11.4,9.9C72.3,97.1,68.4,101.1,60.9,101.1z M51.4,38.3
			h7.9c7.4,0,10.9,3.5,10.9,9.5s-3.7,9.5-10.9,9.5h-7.9V38.3z M104.7,67.2c11.2-6.2,15.9-16.1,15.9-27.5c0-25.6-22.1-37.6-54.6-37.6
			H5c-2.8,0-5,2.3-5,5v125.7c0,2.8,2.2,5,5,5h64.2c32.9,0,54.4-13.4,54.4-39.9C123.7,84.9,115.7,73,104.7,67.2z">
   </path>
  </g>
 </g>
</svg>